<svg xmlns="http://www.w3.org/2000/svg" width="256" height="256" viewBox="0 0 256 256">
<!-- SVG created with Arrow, by QuiverAI (https://quiver.ai) -->
  <path d="m238.2 106.6c-8.92-34.31-35.63-64.53-68.83-76.6-4.48-1.92-12.23-4.35-12.23-6.27l5.76 5.39-12.06 8.17c42.85 10.43 75.69 48.87 75.69 96.11 0 52.85-42.58 98.09-98.87 98.09-18.74 0-35.2-5.14-49.96-14.91l-31.49 11.16 7.76-29.69c-15.43-18.78-25.19-38.83-25.19-64.99 0-48.54 39.29-94.12 88.42-98.28v14.91l30.46-22.51-30.15-21.52-0.31 13.94c-55.66 3.5-102.9 52.4-102.9 113.8 0 25.75 7.76 46.46 23.2 67.52l-14.8 49.23 53.21-16.72-0.22-0.49c15.71 8.21 31.41 12.7 51.11 12.7 59.38 0 114.7-49.56 114.1-112.2-0.13-8.54-1.13-19.18-2.69-26.78z" fill="#545555"/>
  <path d="m142.6 80.72-24.21 25.34-0.07-0.05v-10.86c0-12.04-8.07-19.46-17.67-19.46-10.8 0-17.74 8.38-17.74 19.52v74.92c0 11.38 6.66 18.95 17.21 18.95 11.08 0 17.88-8.67 17.88-17.34v-12.55l24.18 24.8c4.58 4.69 8.56 5.54 13.62 5.32 10.94-0.47 17.74-9.49 17.45-17.33-0.25-5.41-2.62-8.8-5.88-12.17l-25.05-27.59 26.15-26.47c5.35-5.44 5.75-9.8 4.74-16.05-1.7-7.48-8.37-14.43-17.37-14.02-5.68 0-9.1 1.18-13.24 5.04zm17.05 17.37-52.6 53.97v18.56c0 5.51-3.12 7.84-6.4 7.84-4.43 0-7.01-2.74-7.01-7.13v-76.39c0-5.15 3.45-7.41 6.48-7.41 4.53 0 7.18 3.28 7.18 7.41v39.16l43.66-44.47c1.99-2.02 3.49-2.34 5.32-2.34 4.43 0.24 6.93 5.58 4.94 9.66l-1.57 1.14zm0.21 69.9c3.28 3.92 0.21 10.49-5.17 10.49-2.5 0-4.14-1.01-6.13-3.34l-23.49-25.62 8.6-9.37 26.19 27.84z" fill="#545555"/>
</svg>
